<?xml version="1.0" encoding="UTF-8"?>
<svg width="798px" height="600px" viewBox="0 0 798 600" xmlns="http://www.w3.org/2000/svg" xmlns:xlink="http://www.w3.org/1999/xlink" version="1.1">
 <!-- Generated by Pixelmator Pro 2.1.5 -->
 <path id="Path" d="M-1 520 L799 520 799 5.7 C797.021 5.951 795.81 7.21 793.5 6.7 791.427 6.242 789.102 3.364 785.5 4.7 784.137 5.206 784.555 6.242 782.5 6.7 777.611 0.279 764.713 1.257 756 3.2 750.679 4.387 748.204 0.505 744 1.7 741.856 2.309 741.23 5.034 739 4.2 736.152 3.464 736.046 1.846 732 1.7 731.62 2.169 727.857 5.569 727.5 5.7 724.916 6.648 720.938 4.712 719 6.2 718.235 6.787 717.018 9.379 716.5 10.2 713.162 8.204 703.635 5.491 697.5 7.2 695.221 7.835 693.973 11.216 690.5 10.2 690 9.7 689.5 9.2 689 8.7 685.334 8.7 681.666 8.7 678 8.7 675.646 8.011 671.109 6.288 669 5.7 666.5 6.033 664 6.367 661.5 6.7 657.461 5.36 657.715 1.819 650.5 1.7 648.303 4.709 646.427 3.126 642 4.2 641.762 4.258 641.018 5.284 640.5 5.2 639.23 4.994 638.467 3.096 636 3.7 633.544 4.301 631.979 7.134 630 7.7 627.542 8.403 624.047 6.53 621.5 8.2 620.217 9.042 618.95 11.548 617.5 12.2 615.834 12.367 614.166 12.533 612.5 12.7 611.834 13.367 611.166 14.033 610.5 14.7 608.392 15.274 608.076 13.552 607 13.2 604.5 13.2 602 13.2 599.5 13.2 598.287 12.828 597.176 11.262 595 11.7 592.523 12.198 591.648 14.51 590 15.2 587.5 15.033 585 14.867 582.5 14.7 581.847 14.861 579.955 16.096 579.5 16.2 577.004 16.77 573.029 14.746 571.5 14.2 569.167 14.2 566.833 14.2 564.5 14.2 561.116 13.199 556.419 13.114 553 12.2 550 12.033 547 11.867 544 11.7 541.924 10.89 538.666 8.772 536.5 8.2 531.913 6.989 522.442 12.723 519 12.2 510.449 10.9 503.805 6.508 496 5.2 491.428 4.434 487.295 7.909 482 6.2 479.205 5.298 478.311 3.783 474 3.7 473.918 3.81 459.672 12.649 459.5 12.7 456.924 13.467 449.85 11.567 446 12.2 444.256 12.487 444.834 14.231 442.5 13.7 442 13.2 441.5 12.7 441 12.2 437 12.2 433 12.2 429 12.2 428.5 11.533 428 10.867 427.5 10.2 424.857 8.578 420.627 9.446 418 10.2 415.334 10.2 412.666 10.2 410 10.2 407.152 11.102 396.328 14.912 394 11.2 392.825 9.673 393.081 7.782 392.5 6.7 391.91 6.299 391.659 6.313 390.5 6.2 388.3 8.322 382.601 4.412 380.5 5.2 379.029 5.752 378.953 7.091 376 7.2 L376 6.2 C376.376 5.664 376.301 5.727 376.5 4.7 375.476 4.344 374.163 4.203 372.5 4.2 371.927 4.928 371.499 5.3 371 6.2 367.337 3.309 354.6 -1.178 347 1.2 345.379 1.707 345.316 3.854 342.5 3.2 342.167 2.867 341.833 2.533 341.5 2.2 337.334 2.367 333.166 2.533 329 2.7 327.495 2.091 323.433 -0.775 320 0.2 319.5 0.7 319 1.2 318.5 1.7 316 1.867 313.5 2.033 311 2.2 310.5 2.7 310 3.2 309.5 3.7 306.814 4.746 304.318 3.716 302 4.7 300.358 5.397 299.379 7.179 297.5 7.7 293.334 7.867 289.166 8.033 285 8.2 284.049 8.483 283.137 9.935 282.5 10.2 279.667 10.2 276.833 10.2 274 10.2 272.456 8.237 267.424 4.971 265 4.2 260 4.367 255 4.533 250 4.7 249.667 4.2 249.333 3.7 249 3.2 243.146 0.55 234.539 6.494 231 8.2 228.459 9.425 227.34 6.654 225 7.2 221.661 7.978 217.59 10.868 213.5 11.2 209.859 6.122 204.933 10.953 200 11.7 195.103 12.442 191.704 6.93 186 9.2 183.368 10.248 179.596 13.61 174.5 12.2 171.346 11.327 168.228 8.084 165 7.2 162.085 6.402 159.123 8.214 157 8.7 151.353 9.993 148.567 6.053 144 7.2 141.958 7.713 140.72 9.518 139 10.2 136.414 11.225 134.393 10.923 132 12.2 131.333 12.867 130.667 13.533 130 14.2 126 14.2 122 14.2 118 14.2 117.212 14.466 116.289 15.935 115.5 16.2 113.212 16.969 99.708 16.918 98 16.2 96.717 15.661 94.279 13.681 92.5 13.2 89.894 12.495 88.987 14.04 86.5 14.2 85.515 12.614 84.223 11.516 83 10.2 77.458 10.147 72.294 10.818 68 11.2 66.945 9.482 66.311 8.794 63.5 8.7 62.487 9.76 62.029 10.025 60 10.2 59.014 8.776 58.494 8.693 56 8.7 54.007 10.667 52.357 9.21 49 10.2 47.147 10.746 41.788 15.196 39 14.2 38.346 13.967 36.982 12.339 36 12.2 33.471 11.842 32.179 15.767 29 14.2 25.112 12.284 22.286 8.547 17 8.2 10.278 14.18 4.213 7.158 -1 6.2 -1 19.032 -1 507.168 -1 520 Z" fill="#ffffff" fill-opacity="1" stroke="none"/>
</svg>
